<mxfile host="app.diagrams.net" agent="Mozilla/5.0 (Windows NT 10.0; Win64; x64) AppleWebKit/537.36 (KHTML, like Gecko) Chrome/135.0.0.0 Safari/537.36" version="26.2.12">
  <diagram name="Página-1" id="DmS9LEKet9C4BWUitJdl">
    <mxGraphModel dx="788" dy="451" grid="1" gridSize="10" guides="1" tooltips="1" connect="1" arrows="1" fold="1" page="1" pageScale="1" pageWidth="1169" pageHeight="827" math="0" shadow="0">
      <root>
        <mxCell id="0" />
        <mxCell id="1" parent="0" />
        <mxCell id="AiWSJGWunMw6th81vKcO-2" value="Usuario" style="swimlane;fontStyle=1;align=center;verticalAlign=top;childLayout=stackLayout;horizontal=1;startSize=26;horizontalStack=0;resizeParent=1;resizeParentMax=0;resizeLast=0;collapsible=1;marginBottom=0;whiteSpace=wrap;html=1;" vertex="1" parent="1">
          <mxGeometry x="40" y="10" width="160" height="144" as="geometry" />
        </mxCell>
        <mxCell id="AiWSJGWunMw6th81vKcO-3" value="+ id: int&lt;div&gt;+ nome: string&lt;/div&gt;" style="text;strokeColor=none;fillColor=none;align=left;verticalAlign=top;spacingLeft=4;spacingRight=4;overflow=hidden;rotatable=0;points=[[0,0.5],[1,0.5]];portConstraint=eastwest;whiteSpace=wrap;html=1;" vertex="1" parent="AiWSJGWunMw6th81vKcO-2">
          <mxGeometry y="26" width="160" height="34" as="geometry" />
        </mxCell>
        <mxCell id="AiWSJGWunMw6th81vKcO-4" value="" style="line;strokeWidth=1;fillColor=none;align=left;verticalAlign=middle;spacingTop=-1;spacingLeft=3;spacingRight=3;rotatable=0;labelPosition=right;points=[];portConstraint=eastwest;strokeColor=inherit;" vertex="1" parent="AiWSJGWunMw6th81vKcO-2">
          <mxGeometry y="60" width="160" height="8" as="geometry" />
        </mxCell>
        <mxCell id="AiWSJGWunMw6th81vKcO-5" value="&lt;div&gt;+cadastrar()&lt;/div&gt;&lt;div&gt;+realizarPedido(Pedido)&lt;/div&gt;&lt;div&gt;+solicitarTroca(Pedido)&lt;/div&gt;&lt;div&gt;+solicitarDevolucao(Pedido)&lt;/div&gt;" style="text;strokeColor=none;fillColor=none;align=left;verticalAlign=top;spacingLeft=4;spacingRight=4;overflow=hidden;rotatable=0;points=[[0,0.5],[1,0.5]];portConstraint=eastwest;whiteSpace=wrap;html=1;" vertex="1" parent="AiWSJGWunMw6th81vKcO-2">
          <mxGeometry y="68" width="160" height="76" as="geometry" />
        </mxCell>
        <mxCell id="AiWSJGWunMw6th81vKcO-6" value="Administrador" style="swimlane;fontStyle=1;align=center;verticalAlign=top;childLayout=stackLayout;horizontal=1;startSize=26;horizontalStack=0;resizeParent=1;resizeParentMax=0;resizeLast=0;collapsible=1;marginBottom=0;whiteSpace=wrap;html=1;" vertex="1" parent="1">
          <mxGeometry x="40" y="230" width="160" height="90" as="geometry" />
        </mxCell>
        <mxCell id="AiWSJGWunMw6th81vKcO-8" value="" style="line;strokeWidth=1;fillColor=none;align=left;verticalAlign=middle;spacingTop=-1;spacingLeft=3;spacingRight=3;rotatable=0;labelPosition=right;points=[];portConstraint=eastwest;strokeColor=inherit;" vertex="1" parent="AiWSJGWunMw6th81vKcO-6">
          <mxGeometry y="26" width="160" height="8" as="geometry" />
        </mxCell>
        <mxCell id="AiWSJGWunMw6th81vKcO-9" value="&lt;div&gt;+adicionarProduto(Produto)&lt;/div&gt;&lt;div&gt;+removerProduto(Produto)&lt;/div&gt;" style="text;strokeColor=none;fillColor=none;align=left;verticalAlign=top;spacingLeft=4;spacingRight=4;overflow=hidden;rotatable=0;points=[[0,0.5],[1,0.5]];portConstraint=eastwest;whiteSpace=wrap;html=1;" vertex="1" parent="AiWSJGWunMw6th81vKcO-6">
          <mxGeometry y="34" width="160" height="56" as="geometry" />
        </mxCell>
        <mxCell id="AiWSJGWunMw6th81vKcO-10" value="Produto" style="swimlane;fontStyle=1;align=center;verticalAlign=top;childLayout=stackLayout;horizontal=1;startSize=26;horizontalStack=0;resizeParent=1;resizeParentMax=0;resizeLast=0;collapsible=1;marginBottom=0;whiteSpace=wrap;html=1;" vertex="1" parent="1">
          <mxGeometry x="230" y="10" width="140" height="120" as="geometry" />
        </mxCell>
        <mxCell id="AiWSJGWunMw6th81vKcO-11" value="&lt;div&gt;+id: int&lt;/div&gt;&lt;div&gt;+nome: string&lt;/div&gt;&lt;div&gt;+preco: float&lt;/div&gt;&lt;div&gt;+quantidadeEstoque: int&lt;/div&gt;&lt;div&gt;&lt;br&gt;&lt;/div&gt;" style="text;strokeColor=none;fillColor=none;align=left;verticalAlign=top;spacingLeft=4;spacingRight=4;overflow=hidden;rotatable=0;points=[[0,0.5],[1,0.5]];portConstraint=eastwest;whiteSpace=wrap;html=1;" vertex="1" parent="AiWSJGWunMw6th81vKcO-10">
          <mxGeometry y="26" width="140" height="64" as="geometry" />
        </mxCell>
        <mxCell id="AiWSJGWunMw6th81vKcO-12" value="" style="line;strokeWidth=1;fillColor=none;align=left;verticalAlign=middle;spacingTop=-1;spacingLeft=3;spacingRight=3;rotatable=0;labelPosition=right;points=[];portConstraint=eastwest;strokeColor=inherit;" vertex="1" parent="AiWSJGWunMw6th81vKcO-10">
          <mxGeometry y="90" width="140" height="8" as="geometry" />
        </mxCell>
        <mxCell id="AiWSJGWunMw6th81vKcO-13" value="+atualizarEstoque(int)" style="text;strokeColor=none;fillColor=none;align=left;verticalAlign=top;spacingLeft=4;spacingRight=4;overflow=hidden;rotatable=0;points=[[0,0.5],[1,0.5]];portConstraint=eastwest;whiteSpace=wrap;html=1;" vertex="1" parent="AiWSJGWunMw6th81vKcO-10">
          <mxGeometry y="98" width="140" height="22" as="geometry" />
        </mxCell>
        <mxCell id="AiWSJGWunMw6th81vKcO-22" value="Pedido" style="swimlane;fontStyle=1;align=center;verticalAlign=top;childLayout=stackLayout;horizontal=1;startSize=26;horizontalStack=0;resizeParent=1;resizeParentMax=0;resizeLast=0;collapsible=1;marginBottom=0;whiteSpace=wrap;html=1;" vertex="1" parent="1">
          <mxGeometry x="400" y="10" width="170" height="160" as="geometry" />
        </mxCell>
        <mxCell id="AiWSJGWunMw6th81vKcO-23" value="&lt;div&gt;+id: int&lt;/div&gt;&lt;div&gt;+usuario: Usuario&lt;/div&gt;&lt;div&gt;+itens: List&amp;lt;ItemPedido&amp;gt;&lt;/div&gt;&lt;div&gt;+enderecoEntrega:Endereço&lt;/div&gt;&lt;div&gt;+status: string&lt;/div&gt;" style="text;strokeColor=none;fillColor=none;align=left;verticalAlign=top;spacingLeft=4;spacingRight=4;overflow=hidden;rotatable=0;points=[[0,0.5],[1,0.5]];portConstraint=eastwest;whiteSpace=wrap;html=1;" vertex="1" parent="AiWSJGWunMw6th81vKcO-22">
          <mxGeometry y="26" width="170" height="84" as="geometry" />
        </mxCell>
        <mxCell id="AiWSJGWunMw6th81vKcO-24" value="" style="line;strokeWidth=1;fillColor=none;align=left;verticalAlign=middle;spacingTop=-1;spacingLeft=3;spacingRight=3;rotatable=0;labelPosition=right;points=[];portConstraint=eastwest;strokeColor=inherit;" vertex="1" parent="AiWSJGWunMw6th81vKcO-22">
          <mxGeometry y="110" width="170" height="8" as="geometry" />
        </mxCell>
        <mxCell id="AiWSJGWunMw6th81vKcO-25" value="&lt;div&gt;+cancelarPedido()&lt;/div&gt;&lt;div&gt;+acompanharEntrega()&lt;/div&gt;" style="text;strokeColor=none;fillColor=none;align=left;verticalAlign=top;spacingLeft=4;spacingRight=4;overflow=hidden;rotatable=0;points=[[0,0.5],[1,0.5]];portConstraint=eastwest;whiteSpace=wrap;html=1;" vertex="1" parent="AiWSJGWunMw6th81vKcO-22">
          <mxGeometry y="118" width="170" height="42" as="geometry" />
        </mxCell>
      </root>
    </mxGraphModel>
  </diagram>
</mxfile>
